<svg width="180" height="130" viewBox="0 0 180 130" fill="none" xmlns="http://www.w3.org/2000/svg">
<rect width="180" height="130" rx="20" fill="white"/>
<path d="M31.0489 88.9271C31.3483 88.0057 32.6517 88.0057 32.9511 88.9271L34.4697 93.6008C34.6035 94.0128 34.9875 94.2918 35.4207 94.2918H40.335C41.3037 94.2918 41.7065 95.5314 40.9228 96.1008L36.947 98.9894C36.5966 99.244 36.4499 99.6954 36.5838 100.107L38.1024 104.781C38.4017 105.702 37.3472 106.469 36.5635 105.899L32.5878 103.011C32.2373 102.756 31.7627 102.756 31.4122 103.011L27.4365 105.899C26.6528 106.469 25.5983 105.702 25.8976 104.781L27.4162 100.107C27.5501 99.6954 27.4034 99.244 27.053 98.9894L23.0772 96.1008C22.2935 95.5314 22.6963 94.2918 23.665 94.2918H28.5793C29.0125 94.2918 29.3965 94.0128 29.5303 93.6008L31.0489 88.9271Z" fill="#FFB988"/>
<path d="M26.144 26.592C27.5307 26.592 28.6827 26.944 29.6 27.648C30.5173 28.352 31.136 29.3067 31.456 30.512H29.52C29.2533 29.8293 28.8267 29.2907 28.24 28.896C27.664 28.4907 26.9547 28.288 26.112 28.288C25.44 28.288 24.8373 28.4533 24.304 28.784C23.7813 29.1147 23.3653 29.5893 23.056 30.208C22.7573 30.816 22.608 31.5307 22.608 32.352C22.608 33.1627 22.7573 33.8773 23.056 34.496C23.3653 35.104 23.7813 35.5733 24.304 35.904C24.8373 36.2347 25.44 36.4 26.112 36.4C26.9547 36.4 27.664 36.2027 28.24 35.808C28.8267 35.4027 29.2533 34.864 29.52 34.192H31.456C31.136 35.3973 30.5173 36.352 29.6 37.056C28.6827 37.7493 27.5307 38.096 26.144 38.096C25.0773 38.096 24.1333 37.856 23.312 37.376C22.4907 36.8853 21.856 36.208 21.408 35.344C20.96 34.4693 20.736 33.472 20.736 32.352C20.736 31.232 20.96 30.24 21.408 29.376C21.856 28.5013 22.4907 27.8187 23.312 27.328C24.1333 26.8373 25.0773 26.592 26.144 26.592ZM37.3079 29.072C38.1612 29.072 38.9292 29.2533 39.6119 29.616C40.2945 29.9787 40.8279 30.5013 41.2119 31.184C41.5959 31.8667 41.7879 32.6667 41.7879 33.584C41.7879 34.512 41.5959 35.3173 41.2119 36C40.8279 36.6827 40.2945 37.2053 39.6119 37.568C38.9292 37.9307 38.1612 38.112 37.3079 38.112C36.4545 38.112 35.6865 37.9307 35.0039 37.568C34.3319 37.2053 33.7985 36.6827 33.4039 36C33.0199 35.3067 32.8279 34.5013 32.8279 33.584C32.8279 32.6667 33.0199 31.8667 33.4039 31.184C33.7985 30.5013 34.3319 29.9787 35.0039 29.616C35.6865 29.2533 36.4545 29.072 37.3079 29.072ZM37.3079 30.656C36.8385 30.656 36.4065 30.7627 36.0119 30.976C35.6172 31.1893 35.2972 31.52 35.0519 31.968C34.8172 32.4053 34.6999 32.944 34.6999 33.584C34.6999 34.2347 34.8172 34.7787 35.0519 35.216C35.2972 35.6533 35.6172 35.9787 36.0119 36.192C36.4065 36.4053 36.8385 36.512 37.3079 36.512C37.7772 36.512 38.2092 36.4053 38.6039 36.192C38.9985 35.9787 39.3132 35.6533 39.5479 35.216C39.7932 34.7787 39.9159 34.2347 39.9159 33.584C39.9159 32.944 39.7932 32.4053 39.5479 31.968C39.3132 31.52 38.9985 31.1893 38.6039 30.976C38.2092 30.7627 37.7772 30.656 37.3079 30.656ZM45.3655 30.912C45.6642 30.336 46.0908 29.8827 46.6455 29.552C47.2002 29.2107 47.8402 29.04 48.5655 29.04V31.024H48.0215C47.2215 31.024 46.5762 31.2213 46.0855 31.616C45.6055 32 45.3655 32.64 45.3655 33.536V38H43.5415V29.184H45.3655V30.912ZM58.1241 33.168C58.1241 33.4667 58.1028 33.728 58.0601 33.952H51.2761C51.3081 34.8587 51.5588 35.5307 52.0281 35.968C52.4975 36.4053 53.0788 36.624 53.7721 36.624C54.3801 36.624 54.8921 36.4693 55.3081 36.16C55.7348 35.8507 55.9961 35.44 56.0921 34.928H58.0441C57.9268 35.5467 57.6815 36.096 57.3081 36.576C56.9348 37.056 56.4495 37.4347 55.8521 37.712C55.2548 37.9787 54.5881 38.112 53.8521 38.112C52.9988 38.112 52.2415 37.9307 51.5801 37.568C50.9295 37.2053 50.4175 36.6827 50.0441 36C49.6708 35.3173 49.4841 34.512 49.4841 33.584C49.4841 32.6667 49.6708 31.8667 50.0441 31.184C50.4175 30.5013 50.9295 29.9787 51.5801 29.616C52.2415 29.2533 52.9988 29.072 53.8521 29.072C54.7161 29.072 55.4681 29.2533 56.1081 29.616C56.7588 29.968 57.2548 30.4587 57.5961 31.088C57.9481 31.7067 58.1241 32.4 58.1241 33.168ZM56.2841 33.12C56.3055 32.544 56.2041 32.064 55.9801 31.68C55.7668 31.2853 55.4681 30.9973 55.0841 30.816C54.7108 30.624 54.3001 30.528 53.8521 30.528C53.1375 30.528 52.5401 30.7467 52.0601 31.184C51.5801 31.6213 51.3188 32.2667 51.2761 33.12H56.2841ZM61.7093 26.16V38H59.8853V26.16H61.7093ZM65.7405 26.16V38H63.9165V26.16H65.7405ZM67.6918 26.624C67.6918 26.3147 67.7984 26.0587 68.0118 25.856C68.2251 25.6533 68.5078 25.552 68.8598 25.552C69.2118 25.552 69.4944 25.6533 69.7078 25.856C69.9318 26.0587 70.0438 26.3147 70.0438 26.624C70.0438 26.9333 69.9318 27.184 69.7078 27.376C69.4944 27.568 69.2118 27.664 68.8598 27.664C68.5078 27.664 68.2251 27.568 68.0118 27.376C67.7984 27.184 67.6918 26.9333 67.6918 26.624ZM69.7718 29.184V38H67.9478V29.184H69.7718ZM76.907 29.04C77.931 29.04 78.7523 29.3707 79.371 30.032C79.9897 30.6933 80.299 31.6373 80.299 32.864V38H78.475V33.056C78.475 32.2667 78.2723 31.6587 77.867 31.232C77.4617 30.7947 76.907 30.576 76.203 30.576C75.4777 30.576 74.8963 30.8107 74.459 31.28C74.0217 31.7387 73.803 32.416 73.803 33.312V38H71.979V29.184H73.803V31.12C74.0377 30.4587 74.4323 29.9467 74.987 29.584C75.5417 29.2213 76.1817 29.04 76.907 29.04ZM85.9681 29.072C86.7681 29.072 87.4508 29.2693 88.0161 29.664C88.5815 30.0587 88.9815 30.5813 89.2161 31.232V29.184H91.0401V38H89.2161V35.952C88.9815 36.6027 88.5815 37.1253 88.0161 37.52C87.4508 37.9147 86.7681 38.112 85.9681 38.112C85.2001 38.112 84.5121 37.9307 83.9041 37.568C83.3068 37.2053 82.8375 36.6827 82.4961 36C82.1548 35.3173 81.9841 34.512 81.9841 33.584C81.9841 32.6667 82.1548 31.8667 82.4961 31.184C82.8375 30.5013 83.3068 29.9787 83.9041 29.616C84.5121 29.2533 85.2001 29.072 85.9681 29.072ZM86.5281 30.672C85.7175 30.672 85.0668 30.9333 84.5761 31.456C84.0961 31.968 83.8561 32.6773 83.8561 33.584C83.8561 34.4907 84.0961 35.2053 84.5761 35.728C85.0668 36.24 85.7175 36.496 86.5281 36.496C87.0401 36.496 87.4988 36.3787 87.9041 36.144C88.3095 35.8987 88.6295 35.5573 88.8641 35.12C89.0988 34.6827 89.2161 34.1707 89.2161 33.584C89.2161 33.008 89.0988 32.5013 88.8641 32.064C88.6295 31.616 88.3095 31.2747 87.9041 31.04C87.4988 30.7947 87.0401 30.672 86.5281 30.672ZM103.427 38L100.723 33.824L98.307 38H96.211L99.715 32.24L96.131 26.704H98.307L100.963 30.8L103.363 26.704H105.459L101.971 32.368L105.603 38H103.427ZM110.995 29.072C111.849 29.072 112.617 29.2533 113.299 29.616C113.982 29.9787 114.515 30.5013 114.899 31.184C115.283 31.8667 115.475 32.6667 115.475 33.584C115.475 34.512 115.283 35.3173 114.899 36C114.515 36.6827 113.982 37.2053 113.299 37.568C112.617 37.9307 111.849 38.112 110.995 38.112C110.142 38.112 109.374 37.9307 108.691 37.568C108.019 37.2053 107.486 36.6827 107.091 36C106.707 35.3067 106.515 34.5013 106.515 33.584C106.515 32.6667 106.707 31.8667 107.091 31.184C107.486 30.5013 108.019 29.9787 108.691 29.616C109.374 29.2533 110.142 29.072 110.995 29.072ZM110.995 30.656C110.526 30.656 110.094 30.7627 109.699 30.976C109.305 31.1893 108.985 31.52 108.739 31.968C108.505 32.4053 108.387 32.944 108.387 33.584C108.387 34.2347 108.505 34.7787 108.739 35.216C108.985 35.6533 109.305 35.9787 109.699 36.192C110.094 36.4053 110.526 36.512 110.995 36.512C111.465 36.512 111.897 36.4053 112.291 36.192C112.686 35.9787 113.001 35.6533 113.235 35.216C113.481 34.7787 113.603 34.2347 113.603 33.584C113.603 32.944 113.481 32.4053 113.235 31.968C113.001 31.52 112.686 31.1893 112.291 30.976C111.897 30.7627 111.465 30.656 110.995 30.656Z" fill="#1F1D2A"/>
<path d="M21.988 51.13V57.108C21.988 58.1627 22.2167 58.9373 22.674 59.432C23.1407 59.9267 23.7753 60.174 24.578 60.174C25.3807 60.174 26.006 59.9267 26.454 59.432C26.9113 58.9373 27.14 58.1627 27.14 57.108V51.13H28.12V57.108C28.12 58.4427 27.798 59.4413 27.154 60.104C26.51 60.7667 25.6467 61.098 24.564 61.098C23.4813 61.098 22.618 60.7667 21.974 60.104C21.33 59.4413 21.008 58.4427 21.008 57.108V51.13H21.988ZM31.1908 51.13V61H30.1968V51.13H31.1908ZM45.1267 56.058C45.1267 57.0753 44.9261 57.9573 44.5247 58.704C44.1234 59.4413 43.5307 60.0107 42.7467 60.412C41.9721 60.804 41.0341 61 39.9327 61H36.9507V51.13H39.9327C41.5941 51.13 42.8727 51.5687 43.7687 52.446C44.6741 53.314 45.1267 54.518 45.1267 56.058ZM39.8627 60.118C41.2534 60.118 42.3127 59.7633 43.0407 59.054C43.7687 58.3353 44.1327 57.3367 44.1327 56.058C44.1327 54.7793 43.7687 53.7853 43.0407 53.076C42.3127 52.3573 41.2534 51.998 39.8627 51.998H37.9447V60.118H39.8627ZM50.2495 60.286C50.9402 60.286 51.5188 60.1133 51.9855 59.768C52.4522 59.4227 52.7322 58.956 52.8255 58.368H53.8615C53.7215 59.18 53.3342 59.838 52.6995 60.342C52.0648 60.846 51.2622 61.098 50.2915 61.098C49.5635 61.098 48.9148 60.944 48.3455 60.636C47.7855 60.3187 47.3468 59.866 47.0295 59.278C46.7122 58.6807 46.5535 57.9807 46.5535 57.178C46.5535 56.3753 46.7122 55.68 47.0295 55.092C47.3468 54.4947 47.7855 54.042 48.3455 53.734C48.9148 53.4167 49.5635 53.258 50.2915 53.258C51.0382 53.258 51.6822 53.4167 52.2235 53.734C52.7742 54.042 53.1895 54.4573 53.4695 54.98C53.7588 55.5027 53.9035 56.072 53.9035 56.688C53.9035 56.9493 53.8848 57.1873 53.8475 57.402H47.5195C47.5288 58.046 47.6595 58.5873 47.9115 59.026C48.1728 59.4553 48.5088 59.7727 48.9195 59.978C49.3302 60.1833 49.7735 60.286 50.2495 60.286ZM50.2915 54.056C49.7968 54.056 49.3442 54.1587 48.9335 54.364C48.5228 54.5693 48.1868 54.8867 47.9255 55.316C47.6735 55.736 47.5382 56.2633 47.5195 56.898H52.9235C52.9608 56.2727 52.8582 55.7453 52.6155 55.316C52.3728 54.8867 52.0462 54.5693 51.6355 54.364C51.2248 54.1587 50.7768 54.056 50.2915 54.056ZM57.9775 53.258C58.8082 53.258 59.4755 53.4773 59.9795 53.916C60.4835 54.3547 60.7915 54.9473 60.9035 55.694H59.9655C59.9095 55.1993 59.7042 54.7933 59.3495 54.476C59.0042 54.1493 58.5375 53.986 57.9495 53.986C57.4455 53.986 57.0488 54.112 56.7595 54.364C56.4795 54.6067 56.3395 54.9333 56.3395 55.344C56.3395 55.652 56.4282 55.8993 56.6055 56.086C56.7922 56.2727 57.0208 56.4173 57.2915 56.52C57.5622 56.6133 57.9262 56.7113 58.3835 56.814C58.9435 56.9447 59.3915 57.08 59.7275 57.22C60.0728 57.3507 60.3668 57.5607 60.6095 57.85C60.8522 58.1393 60.9735 58.5313 60.9735 59.026C60.9735 59.6327 60.7448 60.132 60.2875 60.524C59.8395 60.9067 59.2422 61.098 58.4955 61.098C57.6182 61.098 56.8995 60.8833 56.3395 60.454C55.7795 60.0153 55.4482 59.418 55.3455 58.662H56.2975C56.3535 59.166 56.5728 59.5767 56.9555 59.894C57.3382 60.2113 57.8562 60.37 58.5095 60.37C58.9948 60.37 59.3728 60.244 59.6435 59.992C59.9142 59.74 60.0495 59.4133 60.0495 59.012C60.0495 58.6853 59.9562 58.424 59.7695 58.228C59.5828 58.032 59.3495 57.8873 59.0695 57.794C58.7988 57.6913 58.4255 57.584 57.9495 57.472C57.3988 57.3413 56.9555 57.2107 56.6195 57.08C56.2928 56.9493 56.0128 56.7487 55.7795 56.478C55.5462 56.198 55.4295 55.82 55.4295 55.344C55.4295 54.7187 55.6582 54.2147 56.1155 53.832C56.5728 53.4493 57.1935 53.258 57.9775 53.258ZM62.5392 51.088C62.5392 50.8827 62.6046 50.7193 62.7352 50.598C62.8752 50.4767 63.0526 50.416 63.2672 50.416C63.4819 50.416 63.6546 50.4767 63.7852 50.598C63.9159 50.7193 63.9812 50.8827 63.9812 51.088C63.9812 51.284 63.9159 51.4427 63.7852 51.564C63.6546 51.6853 63.4819 51.746 63.2672 51.746C63.0526 51.746 62.8752 51.6853 62.7352 51.564C62.6046 51.4427 62.5392 51.284 62.5392 51.088ZM63.7572 53.356V61H62.7632V53.356H63.7572ZM69.1004 53.258C69.8751 53.258 70.5331 53.4587 71.0744 53.86C71.6251 54.2613 72.0031 54.7933 72.2084 55.456V53.356H73.1744V61.182C73.1744 61.8913 73.0251 62.512 72.7264 63.044C72.4277 63.5853 72.0124 64.0007 71.4804 64.29C70.9484 64.5887 70.3417 64.738 69.6604 64.738C68.6617 64.738 67.8404 64.4953 67.1964 64.01C66.5617 63.534 66.1464 62.8853 65.9504 62.064H66.9304C67.0984 62.624 67.4064 63.0673 67.8544 63.394C68.3117 63.7207 68.8951 63.884 69.6044 63.884C70.0897 63.884 70.5284 63.7767 70.9204 63.562C71.3217 63.3567 71.6344 63.0487 71.8584 62.638C72.0917 62.2273 72.2084 61.742 72.2084 61.182V58.9C72.0031 59.5627 71.6251 60.0947 71.0744 60.496C70.5331 60.8973 69.8751 61.098 69.1004 61.098C68.4097 61.098 67.7891 60.9393 67.2384 60.622C66.6971 60.3047 66.2724 59.852 65.9644 59.264C65.6657 58.6667 65.5164 57.9713 65.5164 57.178C65.5164 56.3753 65.6657 55.68 65.9644 55.092C66.2724 54.4947 66.6971 54.042 67.2384 53.734C67.7797 53.4167 68.4004 53.258 69.1004 53.258ZM69.3524 54.126C68.4937 54.126 67.8031 54.4013 67.2804 54.952C66.7671 55.4933 66.5104 56.2353 66.5104 57.178C66.5104 58.1207 66.7671 58.8673 67.2804 59.418C67.8031 59.9593 68.4937 60.23 69.3524 60.23C69.8937 60.23 70.3791 60.104 70.8084 59.852C71.2471 59.6 71.5877 59.2453 71.8304 58.788C72.0824 58.3213 72.2084 57.7847 72.2084 57.178C72.2084 56.5713 72.0824 56.0393 71.8304 55.582C71.5877 55.1153 71.2471 54.756 70.8084 54.504C70.3791 54.252 69.8937 54.126 69.3524 54.126ZM79.1223 53.216C80.009 53.216 80.7277 53.5007 81.2783 54.07C81.8383 54.63 82.1183 55.456 82.1183 56.548V61H81.1523V56.618C81.1523 55.7873 80.9423 55.1527 80.5223 54.714C80.1023 54.266 79.5283 54.042 78.8003 54.042C78.035 54.042 77.4237 54.2893 76.9663 54.784C76.5183 55.2693 76.2943 55.988 76.2943 56.94V61H75.3003V53.356H76.2943V55.232C76.4903 54.5787 76.845 54.0793 77.3583 53.734C77.8717 53.3887 78.4597 53.216 79.1223 53.216ZM87.519 60.286C88.2097 60.286 88.7884 60.1133 89.255 59.768C89.7217 59.4227 90.0017 58.956 90.095 58.368H91.131C90.991 59.18 90.6037 59.838 89.969 60.342C89.3344 60.846 88.5317 61.098 87.561 61.098C86.833 61.098 86.1844 60.944 85.615 60.636C85.055 60.3187 84.6164 59.866 84.299 59.278C83.9817 58.6807 83.823 57.9807 83.823 57.178C83.823 56.3753 83.9817 55.68 84.299 55.092C84.6164 54.4947 85.055 54.042 85.615 53.734C86.1844 53.4167 86.833 53.258 87.561 53.258C88.3077 53.258 88.9517 53.4167 89.493 53.734C90.0437 54.042 90.459 54.4573 90.739 54.98C91.0284 55.5027 91.173 56.072 91.173 56.688C91.173 56.9493 91.1544 57.1873 91.117 57.402H84.789C84.7984 58.046 84.929 58.5873 85.181 59.026C85.4424 59.4553 85.7784 59.7727 86.189 59.978C86.5997 60.1833 87.043 60.286 87.519 60.286ZM87.561 54.056C87.0664 54.056 86.6137 54.1587 86.203 54.364C85.7924 54.5693 85.4564 54.8867 85.195 55.316C84.943 55.736 84.8077 56.2633 84.789 56.898H90.193C90.2304 56.2727 90.1277 55.7453 89.885 55.316C89.6424 54.8867 89.3157 54.5693 88.905 54.364C88.4944 54.1587 88.0464 54.056 87.561 54.056ZM93.931 54.938C94.155 54.3873 94.5144 53.9627 95.009 53.664C95.5037 53.3653 96.1057 53.216 96.815 53.216V54.28H96.493C95.7557 54.28 95.1444 54.4807 94.659 54.882C94.1737 55.274 93.931 55.918 93.931 56.814V61H92.937V53.356H93.931V54.938Z" fill="#9B948E"/>
<path d="M57.0489 88.9271C57.3483 88.0057 58.6517 88.0057 58.9511 88.9271L60.4697 93.6008C60.6035 94.0128 60.9875 94.2918 61.4207 94.2918H66.335C67.3037 94.2918 67.7065 95.5314 66.9228 96.1008L62.947 98.9894C62.5966 99.244 62.4499 99.6954 62.5838 100.107L64.1024 104.781C64.4017 105.702 63.3472 106.469 62.5635 105.899L58.5878 103.011C58.2373 102.756 57.7627 102.756 57.4122 103.011L53.4365 105.899C52.6528 106.469 51.5983 105.702 51.8976 104.781L53.4162 100.107C53.5501 99.6954 53.4034 99.244 53.053 98.9894L49.0772 96.1008C48.2935 95.5314 48.6963 94.2918 49.665 94.2918H54.5793C55.0125 94.2918 55.3965 94.0128 55.5303 93.6008L57.0489 88.9271Z" fill="#FFB988"/>
<path d="M83.0489 88.9271C83.3483 88.0057 84.6517 88.0057 84.9511 88.9271L86.4697 93.6008C86.6035 94.0128 86.9875 94.2918 87.4207 94.2918H92.335C93.3037 94.2918 93.7065 95.5314 92.9228 96.1008L88.947 98.9894C88.5966 99.244 88.4499 99.6954 88.5838 100.107L90.1024 104.781C90.4017 105.702 89.3472 106.469 88.5635 105.899L84.5878 103.011C84.2373 102.756 83.7627 102.756 83.4122 103.011L79.4365 105.899C78.6528 106.469 77.5983 105.702 77.8976 104.781L79.4162 100.107C79.5501 99.6954 79.4034 99.244 79.053 98.9894L75.0772 96.1008C74.2935 95.5314 74.6963 94.2918 75.665 94.2918H80.5793C81.0125 94.2918 81.3965 94.0128 81.5303 93.6008L83.0489 88.9271Z" fill="#FFB988"/>
<path d="M109.049 88.9271C109.348 88.0057 110.652 88.0057 110.951 88.9271L112.47 93.6008C112.604 94.0128 112.987 94.2918 113.421 94.2918H118.335C119.304 94.2918 119.706 95.5314 118.923 96.1008L114.947 98.9894C114.597 99.244 114.45 99.6954 114.584 100.107L116.102 104.781C116.402 105.702 115.347 106.469 114.564 105.899L110.588 103.011C110.237 102.756 109.763 102.756 109.412 103.011L105.436 105.899C104.653 106.469 103.598 105.702 103.898 104.781L105.416 100.107C105.55 99.6954 105.403 99.244 105.053 98.9894L101.077 96.1008C100.294 95.5314 100.696 94.2918 101.665 94.2918H106.579C107.013 94.2918 107.396 94.0128 107.53 93.6008L109.049 88.9271Z" fill="#FFB988"/>
<path d="M135.049 88.9271C135.348 88.0057 136.652 88.0057 136.951 88.9271L138.47 93.6008C138.604 94.0128 138.987 94.2918 139.421 94.2918H144.335C145.304 94.2918 145.706 95.5314 144.923 96.1008L140.947 98.9894C140.597 99.244 140.45 99.6954 140.584 100.107L142.102 104.781C142.402 105.702 141.347 106.469 140.564 105.899L136.588 103.011C136.237 102.756 135.763 102.756 135.412 103.011L131.436 105.899C130.653 106.469 129.598 105.702 129.898 104.781L131.416 100.107C131.55 99.6954 131.403 99.244 131.053 98.9894L127.077 96.1008C126.294 95.5314 126.696 94.2918 127.665 94.2918H132.579C133.013 94.2918 133.396 94.0128 133.53 93.6008L135.049 88.9271Z" fill="#FFB988"/>
</svg>
